# xmcd
#
# Track frame offsets: 
#        150
#        16980
#        37622
#        56952
#        71790
#        92252
#        104592
#        132372
#        146915
#        168012
#        187027
#        210250
#        223552
#        257952
#        279632
#        297305
#
# Disc length: 4140 seconds
#
# Revision: 4
# Processed by: cddbd v1.5.1PL0 Copyright (c) Steve Scherf et al.
# Submitted via: ExactAudioCopy v0.95a5
#
DISCID=f3102a10
DTITLE=Various Artist - Evidence Blues Sampler- Four
DYEAR=1995
DGENRE=Blues
TTITLE0=Sonny Rhodes - Think
TTITLE1=Cash McCall - Something Funny Is Going On
TTITLE2=Willie Mabon - Little Red Rooster
TTITLE3=Eddie Boyd with Buddy Guy - Five Long Years
TTITLE4=Blues Queen Sylvia with Jimmy Dawkins - New York Bound
TTITLE5=Big Bill Broonzy - Goin' To Chicago
TTITLE6=Cephas and Wiggins - Sweet Bitter Blues
TTITLE7=Hubert Sumlin, Willie Dixon, Sunnyland Slim - My Babe
TTITLE8=Billy Branch and the SOBs - Sweet Little Angel
TTITLE9=Billy Boy Arnold - Done Got Over It
TTITLE10=Sunnyland Slim Blues Band - The Sun Is Going Down
TTITLE11=Louisiana Red - Country Playboy
TTITLE12=Jimmy Dawkins, Chicago Beau, "Blue Ice" Bragason - Welfare Li
TTITLE12=ne
TTITLE13=Eddie Taylor Blues Band - Soul Brother
TTITLE14=Carey Bell's Blues Harp Band - Goin' On Main Street
TTITLE15=Blind John Davis - I Had a Dream
EXTD=LABEL =Evidence Music Inc.\nID =ecd26058-2\nUPC =730182-605822
EXTD=\nCOPYRIGHT =1995
EXTT0=
EXTT1=
EXTT2=
EXTT3=
EXTT4=
EXTT5=
EXTT6=
EXTT7=
EXTT8=
EXTT9=
EXTT10=
EXTT11=
EXTT12=
EXTT13=
EXTT14=
EXTT15=
PLAYORDER=
